<svg xmlns="http://www.w3.org/2000/svg" width="16.138" height="14.183" viewBox="0 0 16.138 14.183">
  <defs>
    <style>
      .cls-1 {
        fill: #fff;
      }
    </style>
  </defs>
  <g id="add-to-cart" transform="translate(-299 -3541.408)">
    <path id="Path_4286" data-name="Path 4286" class="cls-1" d="M5.2,9.456h8.574a.473.473,0,0,0,.455-.343l1.891-6.619a.473.473,0,0,0-.455-.6H4.109L3.771.37A.473.473,0,0,0,3.309,0H.473a.473.473,0,1,0,0,.946H2.93L4.637,8.627a1.418,1.418,0,0,0,.563,2.72h8.573a.473.473,0,1,0,0-.946H5.2a.473.473,0,0,1,0-.945Zm9.839-6.619L13.417,8.51H5.58L4.319,2.837Zm0,0" transform="translate(299 3541.408)"/>
    <path id="Path_4287" data-name="Path 4287" class="cls-1" d="M150,361.418A1.418,1.418,0,1,0,151.418,360,1.42,1.42,0,0,0,150,361.418Zm1.418-.473a.473.473,0,1,1-.473.473A.473.473,0,0,1,151.418,360.946Zm0,0" transform="translate(153.728 3192.755)"/>
    <path id="Path_4288" data-name="Path 4288" class="cls-1" d="M362,361.418A1.418,1.418,0,1,0,363.418,360,1.42,1.42,0,0,0,362,361.418Zm1.418-.473a.473.473,0,1,1-.473.473A.473.473,0,0,1,363.418,360.946Zm0,0" transform="translate(-51.59 3192.755)"/>
  </g>
</svg>
