<svg xmlns="http://www.w3.org/2000/svg" width="1920" height="71.582" viewBox="0 0 1920 71.582">
  <g id="Group_1391" data-name="Group 1391" transform="translate(2006 71.491) rotate(180)">
    <path id="Path_4317" data-name="Path 4317" d="M401.023,4c7.566,1.212,7.19,1.212,8.9.014,1.644-1.157.906-1.352-7.037-1.8C394.809,1.761,393.694,2.834,401.023,4Z" transform="translate(155.838 0.866)" fill="#fff"/>
    <path id="Path_4318" data-name="Path 4318" d="M319.666,10.034a13.527,13.527,0,0,0-6.4.084C316.726,10.884,321.979,10.828,319.666,10.034Z" transform="translate(123.243 3.853)" fill="#fff"/>
    <path id="Path_4319" data-name="Path 4319" d="M336.616,11.244c1.965-.836,1.449-.934-5.058-.892-5.128.028-7.092.265-6.758.794C325.525,12.261,334.052,12.331,336.616,11.244Z" transform="translate(127.764 4.105)" fill="#fff"/>
    <path id="Path_4320" data-name="Path 4320" d="M542.629,9.94c3.693,1.728,8.96,1.881,12.039.348,1.5-.752,2.229-1.3,1.589-1.2-2.829.39-8.751-.7-8.792-1.6-.056-1.184-.279-1.184-4.027-.181C539.982,8.24,539.856,8.644,542.629,9.94Z" transform="translate(212.709 2.622)" fill="#fff"/>
    <path id="Path_4321" data-name="Path 4321" d="M420.329,4.821c1.714-1.2.516-1.756-3.637-1.7-2.592.028-3.274.307-2.94,1.17C414.3,5.685,418.587,6.033,420.329,4.821Z" transform="translate(162.742 1.262)" fill="#fff"/>
    <path id="Path_4322" data-name="Path 4322" d="M822.33,13.418c1.463.766,8.792.864,9.573.125,1.087-1.017-1.5-1.9-5.532-1.853C823.445,11.732,821.048,12.749,822.33,13.418Z" transform="translate(323.371 4.634)" fill="#fff"/>
    <path id="Path_4323" data-name="Path 4323" d="M847.359,14.286c6.27-.585,9.015-.6,10.186-.1.92.4,3.567.529,6.229.293,2.536-.223,4.933-.153,5.295.167.961.822,8.82.571,11.537-.362a61.233,61.233,0,0,1,10.144-1.31c9.21-.6,10.046-.92,7.078-2.661-1.853-1.087-3-1.212-6.911-.766a69.442,69.442,0,0,1-7.009.474c-7.845-.181-16.247.167-17.376.711-.85.4-2.857.418-5.615.042a17.666,17.666,0,0,0-6.326.014,23.262,23.262,0,0,1-6.1.376c-10-.571-17.418.418-17.348,2.285C831.238,15.317,834.456,15.484,847.359,14.286Z" transform="translate(326.976 3.697)" fill="#fff"/>
    <path id="Path_4324" data-name="Path 4324" d="M509.149,29.111c2.2.279,3.233.1,3.72-.655a3.243,3.243,0,0,1,2.452-1.059c.975-.014,1.756-.46,1.742-.989-.042-1.143-.613-1.184-3.511-.279a9.322,9.322,0,0,1-5.072-.014c-3.47-.822-8.876-.139-8.82,1.1.028.488,1.491,1.017,3.247,1.2S507.477,28.9,509.149,29.111Z" transform="translate(196.569 10.066)" fill="#fff"/>
    <path id="Path_4325" data-name="Path 4325" d="M1907.147,40.96c.892-.46,6.53-.892,12.853-1.157V34.077c-.466.084-.918.181-1.358.265-5.25,1.157-6.065,1.184-9.7.348a21,21,0,0,0-6.426-.516c-1.358.223-2.767.125-3.142-.223-.414-.39-6.039-.4-14.9-.028-16.978.711-18.219.739-24.478.6-6.53-.153-37.744,1.073-40.279,1.588-1.8.362-9.245.725-33.516,1.616a106.144,106.144,0,0,1-15.581-.752c-9.827-1.268-11.2-2.16-8.987-5.88.828-1.407.685-1.672-.931-1.644a7.508,7.508,0,0,1-3.233-.725c-2.6-1.477-15.245-2.174-16.486-.892-.646.655-1.448.6-3.75-.251-2.948-1.1-6.737-1.17-26.443-.488a83.746,83.746,0,0,1-10.526-.237c-2.87-.39-3.517-.293-3.478.543.039,1.045-2.211,1.407-3.672.585-.453-.265-7.939-.4-16.642-.307-15.3.153-52.214-.042-65.468-.334-3.569-.084-7.694-.125-9.181-.1s-6.582.056-11.327.056c-9.931.014-22.124.265-38.274.78-6.22.2-13.758.153-16.732-.125-7.344-.655-27.477-1.366-43.214-1.519-7.125-.07-15.633-.251-18.891-.4s-11.78-.32-18.892-.362-16.357-.209-20.521-.39c-13.512-.571-15.4-.446-18.155,1.17-2.547,1.5-2.547,1.5-4.37-.557a6.231,6.231,0,0,1-1.319-2.383c.556-.348,9.31-.516,25.641-.488,10.28.028,10.577-.028,12.737-1.742,2.676-2.132,2.172-2.494-3.737-2.661-9.09-.237-14.34-.822-15.594-1.728a6.5,6.5,0,0,0-3.272-.92,125.746,125.746,0,0,0-15.672,1.254c-1.021.279-4,.028-6.711-.543a24.694,24.694,0,0,0-7.616-.585,10.788,10.788,0,0,1-5.25-.488c-2.2-.808-2.793-.808-4.681.014-1.94.85-2.586.794-6.271-.627-5.6-2.16-16.344-2.118-23,.084-5.159,1.714-17.87,1.658-22.706-.084-3.853-1.379-7.008-.46-6.09,1.784.414,1.017.246,1.993-.388,2.243-2.276.892-.957,1.491,4.06,1.853,8.288.613,27.464,1.338,32.288,1.24,2.547-.056,4.991.279,5.728.78,1,.683,2.16.725,5.263.181,7.474-1.31,13.047-1.5,15.62-.557a14.759,14.759,0,0,0,5.935.557c2.728-.279,3.5-.125,3.53.7.052,1.449-2.806,2.034-4.952,1.031-1.72-.808-4.707.6-6.414,2.731a9.538,9.538,0,0,0-3.8,1.157,3.965,3.965,0,0,1-4.1.376c-2.845-1-3.233-.948-3.168.529.052,1.352-1.836,2.188-6.711,2.954-2.754.432-2.974.348-3.116-1.993-2.03.46-5.263-.585-6.155-2.717-.44-.028-3.246-.111-6.207-.209-14.262-.4-20.728-.864-22.835-1.616-2.5-.892-8.121-.056-11.508,1.714a4.233,4.233,0,0,1-2.728.488c-1.384-.488-12.388-.92-23.366-.934a81.024,81.024,0,0,1-9.724-.362c-2.134-.711-11.366-1.1-11.34-.488.052,1.143-3.09,1.393-6.155.488a37.594,37.594,0,0,0-8.638-.822c-5.612.084-5.612.084-4.1,2.146a5.972,5.972,0,0,1,.918,5.518s-1.758-.808-3.8-2.034c-4.345-2.62-6.181-2.829-6.1-.669a2.247,2.247,0,0,1-1.81,2.02c-2.392.613,2.095,1.756,4.552,1.157a3.146,3.146,0,0,1,2.767.948c1.578,1.672,3.815,1.644,6.517-.042,2.457-1.533,4.241-1.728,4.293-.446.039,1.115,4.564,1.77,8.146,1.184a11.294,11.294,0,0,1,5.508.6,9.04,9.04,0,0,0,4.6.571c2.715-.725,13.383-1.073,15.258-.516a51.437,51.437,0,0,0,7.6.808c7.9.4,7.577.4,11.728-.042a13.658,13.658,0,0,1,5.69.432c1.332.529,3.957.683,7.422.446a40.159,40.159,0,0,1,8.638.237c-.039-1.143,4.965-2.7,6.711-2.09a72.779,72.779,0,0,0,9.918.488c4.771.028,16.448.153,25.939.153,21.478-.014,27.723.529,25.435,2.257-1.035.78-.944,1.045.427,1.338,2.082.446,3.944-.209,3.892-1.366-.052-1.352,7.228-1.658,11.172-.474,3.013.906,3.918.92,7.551.1,5.082-1.157,8.314-.5,5.7,1.143a3.256,3.256,0,0,0-1.616,2.383c.065,1.686-1.474,1.728-4.319.111-2.9-1.658-4.384-1.575-4.306.237a4.645,4.645,0,0,1-1.565,2.926c-1.552,1.393-1.5,1.449,1.254,1.421,2.353-.028,2.793.2,2.366,1.254-.711,1.811.737,2.1,2.832.571a7.641,7.641,0,0,1,3.789-1.31c2.987-.042,4.681-1.672,3.866-3.734-1.009-2.55.866-4.166,2.987-2.578a4.833,4.833,0,0,1,1.668,2.968c1.539-.028,1.655,2.369.142,2.7-1.746.376.142,3.679,2.534,4.389,1.138.348,2.082,1.031,2.095,1.533s.853,1.17,1.836,1.477c1.138.362,1.565.989,1.151,1.686-.854,1.435-3.078,1.031-4.513-.822-1.06-1.366-1.6-1.435-7.733-1.017-3.634.251-6.944.265-7.357.028-.866-.5-1.4-.529-8.431-.571-4.72-.028-5.133-.153-5.2-1.658-.078-2.048-3.142-2.815-4.978-1.24-1.539,1.324-5.521.934-7.668-.739-1.177-.92-1.5-.892-3.44.2a7.982,7.982,0,0,1-5.211.85,9.822,9.822,0,0,0-5.172.641c-2.56,1.212-9.75,1.449-10.771.028,1.487.766,3.75-.892,3.685-2.7-.065-1.686-.065-1.686,2.431.014s2.483,1.714,6.388-.418c4.526-2.466,6.582-5.992,3.22-5.546-1.138.153-1.875.725-1.694,1.3.31.975-.879,1.3-7.758,2.048-1.629.181-2.237-.167-2.547-1.477-.828-3.553-8.082-2.843-9.194.906-.685,2.327-3.323,3.149-5.741,1.784-2.082-1.184-.582-2.759,3.646-3.776,3.039-.739,2.121-1.9-1.474-1.853a5.362,5.362,0,0,0-4.151,1.825c-1.526,1.77-1.565,1.77-2.289.376-.7-1.352-.892-1.366-3.815-.418-1.784.585-3.09.725-3.1.348s.491-.669,1.539-1.352c-.427-.39-3.5-.516-7.6-.293-4.72.251-7.254.1-8.056-.432-.879-.6-2.276-.627-5.689-.1a65.094,65.094,0,0,1-8.25.7,14.073,14.073,0,0,0-5.547,1.031c-1.888,1.073-8.457.85-8.508-.279-.026-.655-6.284-2.48-8.431-2.452-1.034.014-1.293.432-.789,1.3.427.739.246,1.282-4.293.543.052,1.421-1.771,1.756-3.259.6-1.19-.934-2.379-1.1-5.34-.766-3.1.348-4.035.181-5.043-.878s-1.94-1.226-4.875-.906c-2,.223-3.931.139-4.28-.2-.866-.794-5.612-.7-6.426.125-.789.808-4.823.92-4.849.139-.039-.85-7.913-1.17-9.491-.4-.918.46-2.237.446-4.1-.028a23.208,23.208,0,0,0-4.991-.669,11.238,11.238,0,0,1-4.875-1.575c-1.474-.906-3.155-1.407-4.448-2.216,1.448-3.637-5.935-8.569-9.491-6.34a8.012,8.012,0,0,1-3.452.78,14.265,14.265,0,0,0-4.6,1.073,6.545,6.545,0,0,1-3.336.7c-2.728-.961-7.681.557-7.319,2.243s.349,1.686-14.211,1.8c-8.793.07-21.077-.334-32.288-1V34.7c-.763-.014-1.526-.014-2.276-.028-10.5-.07-13.409-.655-10.577-2.118.892-.46,6.53-.892,12.853-1.157V25.674c-.465.084-.918.181-1.358.265-5.25,1.157-6.065,1.184-9.7.348a20.994,20.994,0,0,0-6.426-.516c-1.358.223-2.767.125-3.142-.223-.414-.39-6.039-.4-14.9-.028-16.978.711-18.219.739-24.478.6-4.241-.1-18.9.39-29.353.878-2.948-.167-6.931-.293-11.767-.348-8.172-.084-15.892-.46-17.133-.836-1.513-.46-14.6-.5-40.887-.153-.31-.752.013-1.7.789-3,.828-1.407.685-1.672-.931-1.644a7.507,7.507,0,0,1-3.233-.725c-1.306-.739-5.133-1.282-8.78-1.477a5.884,5.884,0,0,0,.284-1.143c.5-2.912-.763-3.874-3.155-2.369-1.668,1.045-1.927,1.045-4.125-.084-2.095-1.073-12.168-2.536-17.017-2.466a2.706,2.706,0,0,0-2.47,1.63c-.841,2.229-5.121,2.815-11.4,1.575-6.013-1.184-16.874-1.059-23.65.279-10,1.965-15.142.557-12.763-3.5,1.9-3.233-3.3-5.978-6.349-3.358-1.034.892-2.263,1.059-5.56.794a16.94,16.94,0,0,0-6.879.613c-1.461.529-3.866,1.282-5.327,1.672s-3.621,1.059-4.8,1.5a43.841,43.841,0,0,1-9.129.961c-8.314.2-17.676,1.658-21.685,3.372a11.551,11.551,0,0,1-1.965.627l-1.707-.042c-3.569-.084-7.694-.125-9.181-.1s-6.582.056-11.327.056c-9.931.014-22.124.265-38.275.78-6.22.2-13.758.153-16.732-.125-7.345-.655-27.478-1.366-43.214-1.519-7.125-.07-15.633-.251-18.892-.4s-11.78-.32-18.892-.362-16.357-.209-20.521-.39c-13.512-.571-15.4-.446-18.155,1.17-2.547,1.5-2.547,1.5-4.371-.557a6.234,6.234,0,0,1-1.319-2.383c.556-.348,9.31-.516,25.641-.488,10.28.028,10.577-.028,12.737-1.742,2.677-2.132,2.172-2.494-3.737-2.661-9.09-.237-14.34-.822-15.594-1.728a6.5,6.5,0,0,0-3.271-.92,125.746,125.746,0,0,0-15.672,1.254c-1.022.279-4,.028-6.711-.543a24.7,24.7,0,0,0-7.616-.585,10.787,10.787,0,0,1-5.25-.488c-2.2-.808-2.793-.808-4.681.014-1.94.85-2.586.794-6.271-.627-5.6-2.16-16.344-2.118-23,.084-5.159,1.714-17.87,1.658-22.706-.084-3.853-1.379-7.008-.46-6.09,1.784.414,1.017.246,1.993-.388,2.243-2.276.892-.957,1.491,4.06,1.853,8.289.613,27.465,1.338,32.288,1.24,2.547-.056,4.991.279,5.728.78,1,.683,2.159.725,5.263.181,7.474-1.31,13.047-1.5,15.62-.557a14.759,14.759,0,0,0,5.935.557c2.728-.279,3.5-.125,3.53.7.052,1.449-2.806,2.034-4.952,1.031-1.72-.808-4.707.6-6.414,2.731a9.538,9.538,0,0,0-3.8,1.157,3.965,3.965,0,0,1-4.1.376c-2.845-1-3.233-.948-3.168.529.052,1.352-1.836,2.188-6.711,2.954-2.754.432-2.974.348-3.116-1.993-2.03.46-5.263-.585-6.155-2.717-.44-.028-3.246-.111-6.207-.209-14.262-.4-20.728-.864-22.835-1.616-2.5-.892-8.12-.056-11.508,1.714a4.234,4.234,0,0,1-2.728.488c-1.384-.488-12.388-.92-23.366-.934a81.023,81.023,0,0,1-9.724-.362c-2.133-.711-11.366-1.1-11.34-.488.052,1.143-3.09,1.393-6.155.488a37.593,37.593,0,0,0-8.638-.822c-5.612.084-5.612.084-4.1,2.146a5.972,5.972,0,0,1,.918,5.518s-1.759-.808-3.8-2.034c-4.345-2.62-6.181-2.829-6.1-.669a2.246,2.246,0,0,1-1.81,2.02c-2.392.613,2.095,1.756,4.552,1.157a3.146,3.146,0,0,1,2.767.948c1.578,1.672,3.815,1.644,6.517-.042,2.457-1.533,4.241-1.728,4.293-.446.039,1.115,4.565,1.77,8.146,1.184a11.294,11.294,0,0,1,5.508.6,9.041,9.041,0,0,0,4.6.571c2.715-.725,13.383-1.073,15.258-.516a51.441,51.441,0,0,0,7.6.808c7.9.4,7.577.4,11.728-.042a13.657,13.657,0,0,1,5.689.432c1.332.529,3.957.683,7.422.446a40.158,40.158,0,0,1,8.638.237c-.052-1.143,4.965-2.7,6.711-2.09a72.774,72.774,0,0,0,9.918.488c4.771.028,16.448.153,25.939.153,21.478-.014,27.723.529,25.435,2.257-1.034.78-.944,1.045.427,1.338,2.082.446,3.944-.209,3.892-1.366-.052-1.352,7.228-1.658,11.172-.474,3.013.906,3.918.92,7.551.1,5.082-1.157,8.314-.5,5.7,1.143a3.255,3.255,0,0,0-1.616,2.383c.065,1.686-1.474,1.728-4.319.111-2.9-1.658-4.383-1.575-4.306.237a4.644,4.644,0,0,1-1.565,2.926c-1.552,1.393-1.5,1.449,1.254,1.421,2.353-.028,2.793.2,2.366,1.254-.711,1.811.737,2.1,2.832.571a7.641,7.641,0,0,1,3.789-1.31c2.987-.042,4.681-1.672,3.866-3.734-1.009-2.55.866-4.166,2.987-2.578a4.833,4.833,0,0,1,1.668,2.968c1.539-.028,1.655,2.369.142,2.7-1.746.376.142,3.679,2.534,4.389,1.138.348,2.082,1.031,2.095,1.533s.853,1.17,1.836,1.477c1.138.362,1.565.989,1.151,1.686-.853,1.435-3.078,1.031-4.513-.822-1.06-1.366-1.6-1.435-7.732-1.017-3.633.251-6.944.265-7.358.028-.866-.5-1.4-.529-8.431-.571-4.72-.028-5.133-.153-5.2-1.658-.078-2.048-3.142-2.815-4.978-1.24-1.539,1.324-5.521.934-7.668-.739-1.177-.92-1.5-.892-3.44.2a7.982,7.982,0,0,1-5.211.85,9.822,9.822,0,0,0-5.172.641c-2.56,1.212-9.75,1.449-10.771.028,1.487.766,3.75-.892,3.685-2.7-.065-1.686-.065-1.686,2.431.014s2.483,1.714,6.388-.418c4.526-2.466,6.582-5.992,3.22-5.546-1.138.153-1.875.725-1.694,1.3.31.975-.879,1.3-7.758,2.048-1.629.181-2.237-.167-2.547-1.477-.828-3.553-8.082-2.843-9.194.906-.685,2.327-3.323,3.149-5.741,1.784-2.082-1.184-.582-2.759,3.646-3.776,3.039-.739,2.121-1.9-1.474-1.853a5.363,5.363,0,0,0-4.151,1.825c-1.526,1.77-1.565,1.77-2.289.376-.7-1.352-.892-1.366-3.814-.418-1.784.585-3.09.725-3.1.348s.491-.669,1.539-1.352c-.427-.39-3.5-.516-7.6-.293-4.72.251-7.254.1-8.056-.432-.879-.6-2.276-.627-5.689-.1a65.092,65.092,0,0,1-8.25.7,14.072,14.072,0,0,0-5.547,1.031c-1.888,1.073-8.457.85-8.508-.279-.026-.655-6.284-2.48-8.431-2.452-1.034.014-1.28.432-.789,1.3.427.739.246,1.282-4.293.543.052,1.421-1.771,1.756-3.258.6-1.19-.934-2.379-1.1-5.34-.766-3.1.348-4.034.181-5.043-.878s-1.94-1.226-4.875-.906c-2,.223-3.931.139-4.28-.2-.866-.794-5.612-.7-6.427.125-.789.808-4.823.92-4.849.139-.039-.85-7.914-1.17-9.491-.4-.918.46-2.237.446-4.1-.028a23.21,23.21,0,0,0-4.991-.669,11.239,11.239,0,0,1-4.875-1.575c-1.474-.906-3.155-1.407-4.448-2.216,1.448-3.637-5.935-8.569-9.491-6.34a8.012,8.012,0,0,1-3.452.78,14.264,14.264,0,0,0-4.6,1.073,6.546,6.546,0,0,1-3.336.7c-2.728-.961-7.681.557-7.319,2.243s.349,1.686-14.211,1.8c-13.267.111-34.5-.864-47.985-2.188-2.909-.293-7.823-.488-10.913-.446-8.159.111-19.9-2.285-24.09-4.919-2.379-1.491-3.3-1.463-3.944.153-.569,1.449-8.547,2.034-9.97.725a4.428,4.428,0,0,0-2.935-.32,15.071,15.071,0,0,1-5.431-.571,17.886,17.886,0,0,0-6-.585,12.806,12.806,0,0,1-5-.46c-1.422-.516-7.694-.878-17.133-.975-8.172-.084-15.892-.46-17.133-.836-1.539-.46-15.064-.5-42.322-.125-48.05.641-43.46.46-45.645,2.048-3.427,2.508-15.362.725-15.491-2.313-.052-1.379,1.073-1.672,9.064-2.438a51.346,51.346,0,0,0,8.043-1.366,10.739,10.739,0,0,1,4.1-.571,6.178,6.178,0,0,0,3.427-.864,5.294,5.294,0,0,1,3.957-.655,97.97,97.97,0,0,0,11.819.516c9.879.014,9.879.014,10.293-2.355.5-2.912-.763-3.874-3.155-2.369-1.668,1.045-1.927,1.045-4.125-.084-2.095-1.073-12.168-2.536-17.017-2.466a2.706,2.706,0,0,0-2.47,1.63c-.84,2.229-5.121,2.815-11.4,1.575-6.013-1.184-16.874-1.059-23.65.279-10,1.965-15.142.557-12.762-3.5,1.9-3.233-3.3-5.978-6.349-3.358-1.034.892-2.263,1.059-5.56.794a16.939,16.939,0,0,0-6.879.613c-1.461.529-3.866,1.282-5.327,1.672s-3.621,1.059-4.8,1.5a43.841,43.841,0,0,1-9.129.961c-8.314.2-17.676,1.658-21.685,3.372a21.4,21.4,0,0,1-8.043,1.24,81.424,81.424,0,0,0-11.586,1.143c-3.53.627-8.353,1.449-10.694,1.825a25.913,25.913,0,0,0-5.87,1.575,20.108,20.108,0,0,1-5.353,1.393A32.023,32.023,0,0,0,53.313,18.5a15.127,15.127,0,0,1-4.487.961,5.029,5.029,0,0,0-2.806.725,30.45,30.45,0,0,1-6.284,2.369c-4.965,1.491-14.418,6.939-20.844,12a17.661,17.661,0,0,1-6.181,2.174C7.655,37.755-.065,41.782,0,43.5c.052,1.212,3.181,1.686,13.564,2.02,16.771.543,29.831,1.477,34.628,2.452,6.957,1.421,35.171,2.48,38.236,1.449,1.526-.516,4.151-.488,9.491.084,4.06.432,12.219.766,18.116.711,18.323-.139,39.141.739,43.162,1.811,3.569.961,3.853.934,7.151-.529,2.741-1.226,3.776-1.379,5.2-.794,4.72,1.937,6.62,2.174,8.586,1.059a32.284,32.284,0,0,1,6.465-2.118c4.461-1.017,4.629-1,7.383.571,2.017,1.157,3.142,1.407,3.957.906,2.25-1.407,19.15-1.143,19.848.32.866,1.8,2.78,1.561,6.051-.725a11.445,11.445,0,0,1,3.97-1.993,6.776,6.776,0,0,0,3.013-1.449c1.655-1.282,2.78-1.435,10.732-1.449a81.7,81.7,0,0,1,9.879.334,5.883,5.883,0,0,0,3.181-.613c1.875-.822,2.935-.85,7.28-.167,2.793.432,10.2,1.059,16.435,1.379s14.275.934,17.857,1.366c3.685.446,17,.794,30.723.836,13.318.028,25.021.307,25.99.6a23.611,23.611,0,0,0,5.47.446,59.748,59.748,0,0,1,8.379.585c2.573.376,8.508.725,13.189.808a115.484,115.484,0,0,1,12.09.725c1.978.334,10.267.683,18.439.794s16.189.488,17.831.85a66.733,66.733,0,0,0,10.008.711c3.853.028,12.129.362,18.374.725s12.814.669,14.586.655,46.822,1.3,60.476,1.491,30.671.585,37.8.864c21.9.864,23.482.906,33.49,1.017,5.34.056,15.711.362,23.055.669,9.814.4,14.288.348,16.926-.209a12.587,12.587,0,0,1,5.56-.2,41.791,41.791,0,0,0,14.353.474,27.54,27.54,0,0,1,8.806,0c3.194.376,7.991.739,10.655.822,5.793.167,63.269,1.212,77.441,1.407a107.32,107.32,0,0,1,11,.5c.569.2,13.331.348,28.357.334s59.946.167,83.971,0,44.417-.237,45.309-.153,5.172-.153,9.5-.516c7.383-.613,7.991-.78,9.439-2.675a7.6,7.6,0,0,1,2.108-1.784c.362.181.776.418,1.267.7,2.017,1.157,3.142,1.407,3.957.906,2.25-1.407,19.15-1.143,19.848.32.866,1.8,2.78,1.561,6.052-.725a11.443,11.443,0,0,1,3.97-1.993,6.776,6.776,0,0,0,3.013-1.449c1.655-1.282,2.78-1.435,10.732-1.449a81.694,81.694,0,0,1,9.879.334,5.884,5.884,0,0,0,3.181-.613c1.875-.822,2.935-.85,7.28-.167,2.793.432,10.2,1.059,16.435,1.379s14.275.934,17.857,1.366c3.685.446,17,.794,30.723.836,13.318.028,25.021.307,25.99.6a23.61,23.61,0,0,0,5.47.446,59.745,59.745,0,0,1,8.379.585c2.573.376,8.508.725,13.189.808a115.479,115.479,0,0,1,12.09.725c1.978.334,10.267.683,18.439.794s16.189.488,17.831.85a66.732,66.732,0,0,0,10.008.711c3.853.028,12.129.362,18.374.725s12.814.669,14.586.655,46.822,1.3,60.476,1.491,30.671.585,37.8.864c21.9.864,23.482.906,33.49,1.017,5.34.056,15.711.362,23.055.669,9.814.4,14.288.348,16.926-.209a12.587,12.587,0,0,1,5.56-.2,41.792,41.792,0,0,0,14.353.474,27.54,27.54,0,0,1,8.806,0c3.194.376,7.991.739,10.655.822,5.793.167,63.27,1.212,77.441,1.407a107.321,107.321,0,0,1,11,.5c.569.2,13.332.348,28.357.334s59.946.167,83.971,0,44.417-.237,45.309-.153,5.172-.153,9.5-.516c7.383-.613,7.991-.78,9.439-2.675,2.431-3.177,9.853-5.17,19.1-5.142A93.819,93.819,0,0,0,1732,62.46c6.052-.934,53.7-1.547,55.951-.711a4.979,4.979,0,0,0,4.422-.209c1.681-.7,4.487-.92,9.8-.808,4.1.084,8.327-.139,9.4-.5a4.354,4.354,0,0,1,3.8.307c1.616.836,2.483.836,6.659.014,10.034-1.965,20.547-3.275,26.547-3.316,3.427-.014,10.086-.39,14.818-.808s14.844-.989,22.473-1.268c10.888-.39,14.288-.725,15.8-1.575,1.914-1.087,6.594-1.143,15.568-.181.75.084,1.629.139,2.6.181V43.148c-.763-.014-1.526-.014-2.276-.028C1907.224,43.022,1904.315,42.437,1907.147,40.96Zm-608.812-7.636a1.519,1.519,0,0,1-1.668-1.268,1.438,1.438,0,0,1,1.565-1.31,1.517,1.517,0,0,1,1.668,1.268C1299.939,32.725,1299.241,33.31,1298.335,33.324Zm39.438-1.853c-1.552.028-2.03-.265-1.616-.975a2.089,2.089,0,0,1,3.375.181C1339.791,31.109,1339,31.457,1337.774,31.471Zm48.024-1.184c-.5-.139.207-.627,1.578-1.073,2.56-.85,4.112-.766,4.151.223C1391.539,30.05,1387.246,30.691,1385.8,30.286Zm10.616,2.3c-1.009.014-1.578-.418-1.4-1.059.465-1.63,2.974-1.881,3.039-.307C1398.095,32.014,1397.422,32.572,1396.414,32.586Zm1.474-5.783c-.026-.766,2.043-1.6,2.832-1.157S1400.2,27.374,1397.888,26.8Zm7.4-3.358c1.681-.571,2.172-.529,2.2.153.065,1.588-2.392,2.369-3.7,1.184C1403.422,24.448,1404.095,23.849,1405.284,23.445Zm6.207,10.618c-1.875,1.8-5.431,2.118-6.478.585-.828-1.2,2.444-5.434,4.2-5.448C1411.737,29.158,1413.237,32.377,1411.491,34.063Zm28.033-1.1c-2.806-.655-4.409-.711-5.909-.209a6.367,6.367,0,0,1-3.181.307c-1.8-.627,1.086-2.327,3.3-1.937a3.584,3.584,0,0,0,2.6-.348c1.047-1.073,3.569-.836,6.026.557C1445.589,33.171,1444.115,34.035,1439.525,32.962Zm-898.056-8A1.519,1.519,0,0,1,539.8,23.7a1.438,1.438,0,0,1,1.565-1.31,1.517,1.517,0,0,1,1.668,1.268A1.43,1.43,0,0,1,541.469,24.964Zm39.438-1.853c-1.552.028-2.03-.265-1.616-.975a2.089,2.089,0,0,1,3.375.181C582.911,22.748,582.136,23.1,580.907,23.11Zm48.011-1.184c-.5-.139.207-.627,1.578-1.073,2.56-.85,4.112-.766,4.151.223C634.673,21.689,630.38,22.33,628.918,21.926Zm10.629,2.3c-1.009.014-1.578-.418-1.4-1.059.465-1.63,2.974-1.881,3.039-.307C641.228,23.654,640.556,24.211,639.547,24.225Zm1.474-5.783c-.026-.766,2.043-1.6,2.832-1.157S643.336,19.014,641.021,18.443Zm7.383-3.358c1.681-.571,2.172-.529,2.2.153.065,1.588-2.405,2.369-3.7,1.184C646.556,16.088,647.228,15.488,648.4,15.084Zm6.22,10.618c-1.875,1.8-5.431,2.118-6.478.585-.828-1.2,2.444-5.434,4.2-5.448C654.87,20.8,656.37,24.016,654.624,25.7Zm28.021-1.1c-2.806-.655-4.409-.711-5.909-.209a6.367,6.367,0,0,1-3.181.307c-1.8-.627,1.086-2.327,3.3-1.937a3.584,3.584,0,0,0,2.6-.348c1.047-1.073,3.569-.836,6.026.557C688.722,24.81,687.235,25.674,682.645,24.6ZM471.256,28.1a2.743,2.743,0,0,1-3.349-.711c-.259-.418.53-.766,1.784-.794C471.928,26.58,472.626,27.235,471.256,28.1Zm3.155-3.3a1.748,1.748,0,0,1-2.586-1.17c-.026-.516.7-.934,1.578-.948C475.031,22.665,475.665,24.016,474.411,24.8ZM550.494,46.38c-1.448,1.087-4.371.752-4.422-.516-.039-1.1,3.246-1.867,4.629-1.073C551.412,45.182,551.348,45.725,550.494,46.38Zm6.84-2.3c-.983.989-3.737.836-4.487-.265-.672-.975,1.177-2.912,2.793-2.926C556.843,40.876,558.123,43.273,557.335,44.081Zm4.94-2.327a7.164,7.164,0,0,1,1.823-1.588c1.2-.752,2.211-1.045,2.224-.641C566.347,40.277,562.946,42.144,562.274,41.754Zm15.426.613a4.4,4.4,0,0,1-5.573.766c-1.81-1.031,1.228-4.682,3.5-4.194a14.423,14.423,0,0,0,2.638.334C579.782,39.26,579.511,40.751,577.7,42.367Zm11.728-1.115a1.763,1.763,0,0,1-2.6-1.17c-.026-.516.7-.934,1.578-.948C590.049,39.121,590.7,40.472,589.428,41.253Zm4.707,6.869a2.392,2.392,0,0,1-3.582-.85c-.22-.613.3-1.073,1.241-1.087C593.8,46.157,595.04,47.188,594.135,48.122Zm8.133.293c-2.3-.488-3.284-1.115-3.323-2.146-.078-1.881,1.28-1.881,4.9.042C607.518,48.247,606.691,49.348,602.268,48.415Zm46.9.209c-1.254.655-2.224.683-4.435.111-2.289-.585-3.271-.529-5.082.265-2.935,1.282-3.194,1.282-5.353-.07-2-1.254-.789-2.675,2.353-2.745a13.4,13.4,0,0,0,4.319-1.338c3.491-1.714,4.254-1.672,4.332.265.052,1.17.647,1.6,2.159,1.575C650.293,46.659,651.133,47.606,649.168,48.624ZM712.437,22.26a1.472,1.472,0,0,1-.3,2.884,5.1,5.1,0,0,1-2.134-.376C708.959,24.183,711.235,21.842,712.437,22.26Zm-7.8,7.636a28.189,28.189,0,0,0,6.116-1.993c1.681-.948,2.082-.975,2.974-.167,1.565,1.407,1.332,2.4-.737,3.135-1.759.627-1.746.711.233,1.547,4.2,1.77.3,3.079-4.2,1.407a23.273,23.273,0,0,1-4.371-2.508,12.689,12.689,0,0,1-4.642.4C700.269,31.206,702.351,30.384,704.64,29.9Zm-12.051-5.114c3.362-.042,3.789-.237,3.452-1.5-.259-.948.168-1.449,1.228-1.463a2.118,2.118,0,0,1,2.03,1.742c.22.975-.1,1.77-1.849,2.689.039.85-3.8,2.926-5.573,3.024-.453.028-1.332-.7-1.953-1.588C688.179,25.145,688.464,24.838,692.589,24.783Zm3.077,9.726c-2.935,1.491-4.189,1.561-5.069.265-.763-1.129,2.315-3.553,4.539-3.581C697.877,31.15,698.2,33.213,695.666,34.508Zm18.012,8.04a2.563,2.563,0,0,0-2.069,1.324,3,3,0,0,1-4.293.7c-1.034-.948-4.435-.711-5.922.4-1.733,1.31-6.414,1.366-6.465.07-.026-.543-.892-1.17-1.94-1.379-3.905-.808-6.4-4.57-2.625-4.933.039.906.75,1,4.461.6,4.293-.474,4.409-.446,3.815,1.115-.8,2.1.737,2.564,3.013.906,2.211-1.616,4.28-1.352,4.849.613.414,1.435.5,1.421,4.021-.711,2.47-1.5,3.957-1.979,4.733-1.533C716.691,40.528,715.579,42.521,713.679,42.548ZM721.954,31.4a1.165,1.165,0,0,0,.608,1.672c.828.293.634.822-.595,1.672-2.289,1.575-2.095,1.616-4.19-.752a11.263,11.263,0,0,1-1.513-2.146C717.092,31.429,721.282,30.175,721.954,31.4Zm-2.121,14.282a5.216,5.216,0,0,1-2.69-.516c-.918-.85,2-2.954,3.414-2.452C722.7,43.454,722.161,45.656,719.833,45.684Zm4.694-2.87c-1.5-.39-2.728-1.073-2.754-1.519-.039-1.017,2.353-1.073,4.086-.084C728.342,42.632,727.54,43.607,724.527,42.813Zm413.094-9.169h-1.112c-1.332.014-2.754-.042-4.215-.139A6.318,6.318,0,0,1,1137.621,33.645ZM999.677,20.951c.931.892-1.164,3.428-2.858,3.442C995.126,23.236,999.173,20.463,999.677,20.951ZM781.241,32.181c3.388.46,4.655,1.9,2.858,3.261-1.668,1.268-3.284,1.282-2.534.028.737-1.226-2.819-2.076-3.931-.948C774.607,33.31,778.034,31.75,781.241,32.181ZM745.19,30.217c1.513.529,1.216,2.188-.388,2.216a5.255,5.255,0,0,1-2.159-.39C741.634,31.471,743.988,29.785,745.19,30.217Zm-2.3,5.574c-2.638,1.059-5.082.627-5.845-1.017-.944-2.034-.259-2.48,3.1-2.034C743.212,33.157,744.88,35,742.889,35.79Zm5.715,9.071c-1.72.446-4.021.557-4.034.209-.026-.529,3.3-2.341,4.306-2.355C750.363,42.688,750.156,44.457,748.6,44.861Zm3.1-8.653a1.211,1.211,0,0,1-1.06-1.268c-.052-1.352,1.5-1.756,2.664-.683C754.138,35,753.156,36.194,751.707,36.208Zm1.151-5.086c-2.082-.752-.646-3.957,1.8-3.985,2.263-.028,3.608,1.561,2.78,3.275C756.8,31.694,755.186,31.945,752.858,31.122Zm3.168,3.386c-.039-1.031,2.793-2.062,3.905-1.435.349.2.375.822.052,1.366C759.207,35.749,756.078,35.8,756.026,34.508Zm472.1,1.951a2.743,2.743,0,0,1-3.349-.711c-.259-.418.53-.766,1.785-.794C1228.795,34.94,1229.506,35.6,1228.122,36.459Zm3.155-3.3a1.748,1.748,0,0,1-2.586-1.17c-.026-.516.7-.934,1.578-.948C1231.9,31.025,1232.545,32.377,1231.277,33.157Zm76.084,21.584c-1.448,1.087-4.37.752-4.422-.516-.039-1.1,3.246-1.867,4.629-1.073C1308.279,53.542,1308.214,54.086,1307.361,54.741Zm6.84-2.3c-.983.989-3.737.836-4.487-.265-.672-.975,1.177-2.912,2.793-2.926C1313.723,49.237,1314.99,51.633,1314.2,52.442Zm4.939-2.327a7.164,7.164,0,0,1,1.823-1.588c1.2-.752,2.211-1.045,2.224-.641C1323.214,48.638,1319.826,50.5,1319.141,50.115Zm15.426.613a4.4,4.4,0,0,1-5.573.766c-1.81-1.031,1.228-4.682,3.5-4.194a14.423,14.423,0,0,0,2.638.334C1336.649,47.62,1336.377,49.111,1334.567,50.728Zm11.741-1.115a1.763,1.763,0,0,1-2.6-1.17c-.013-.516.7-.934,1.577-.948C1346.916,47.481,1347.562,48.833,1346.308,49.613ZM1351,56.482a2.393,2.393,0,0,1-3.582-.85c-.22-.613.3-1.073,1.241-1.087C1350.666,54.518,1351.92,55.549,1351,56.482Zm8.133.293c-2.3-.488-3.284-1.115-3.323-2.146-.078-1.881,1.267-1.881,4.9.042C1364.4,56.608,1363.57,57.709,1359.135,56.775Zm46.912.209c-1.254.655-2.224.683-4.435.111-2.289-.585-3.271-.529-5.082.265-2.935,1.282-3.194,1.282-5.353-.07-2-1.254-.789-2.675,2.353-2.745a13.4,13.4,0,0,0,4.319-1.338c3.491-1.714,4.254-1.672,4.332.265.052,1.17.647,1.6,2.159,1.575C1407.159,55.019,1408,55.967,1406.047,56.984ZM1469.3,30.621a1.472,1.472,0,0,1-.3,2.884,5.1,5.1,0,0,1-2.134-.376C1465.838,32.544,1468.1,30.2,1469.3,30.621Zm-7.784,7.636a28.183,28.183,0,0,0,6.116-1.993c1.681-.948,2.082-.975,2.974-.167,1.564,1.407,1.332,2.4-.737,3.135-1.759.627-1.746.711.233,1.547,4.2,1.77.3,3.079-4.2,1.407a23.27,23.27,0,0,1-4.37-2.508,12.689,12.689,0,0,1-4.642.4C1457.136,39.567,1459.218,38.744,1461.52,38.257Zm-12.064-5.114c3.362-.042,3.789-.237,3.453-1.5-.259-.948.168-1.449,1.228-1.463a2.117,2.117,0,0,1,2.03,1.742c.22.975-.1,1.77-1.849,2.689.039.85-3.8,2.926-5.573,3.024-.453.028-1.332-.7-1.953-1.588C1445.059,33.505,1445.343,33.2,1449.455,33.143Zm3.078,9.726c-2.935,1.491-4.19,1.561-5.069.265-.763-1.129,2.315-3.553,4.539-3.581C1454.744,39.511,1455.08,41.573,1452.533,42.869Zm18.012,8.04a2.564,2.564,0,0,0-2.069,1.324,3,3,0,0,1-4.293.7c-1.035-.948-4.435-.711-5.922.4-1.733,1.31-6.414,1.366-6.465.07-.026-.543-.892-1.17-1.94-1.379-3.905-.808-6.4-4.57-2.625-4.933.039.906.75,1,4.461.6,4.293-.474,4.409-.446,3.814,1.115-.8,2.1.737,2.564,3.013.906,2.211-1.616,4.28-1.352,4.849.613.414,1.435.5,1.421,4.021-.711,2.47-1.5,3.957-1.979,4.733-1.533C1473.571,48.888,1472.459,50.881,1470.545,50.909Zm8.288-11.147a1.165,1.165,0,0,0,.608,1.672c.828.293.634.822-.595,1.672-2.289,1.575-2.095,1.616-4.189-.752a11.264,11.264,0,0,1-1.513-2.146C1473.959,39.789,1478.161,38.535,1478.834,39.762Zm-2.121,14.282a5.216,5.216,0,0,1-2.689-.516c-.918-.85,2-2.954,3.414-2.452C1479.583,51.815,1479.04,54.016,1476.713,54.044Zm4.681-2.87c-1.5-.39-2.728-1.073-2.754-1.519-.039-1.017,2.354-1.073,4.086-.084C1485.221,50.992,1484.407,51.968,1481.394,51.174Zm20.663-12.6c1.513.529,1.215,2.188-.388,2.216a5.256,5.256,0,0,1-2.159-.39C1498.5,39.831,1500.854,38.145,1502.057,38.577Zm-2.3,5.574c-2.638,1.059-5.082.627-5.845-1.017-.944-2.034-.258-2.48,3.1-2.034C1500.091,41.517,1501.747,43.357,1499.755,44.151Zm5.715,9.071c-1.72.446-4.021.557-4.034.209-.026-.529,3.3-2.341,4.306-2.355C1507.242,51.048,1507.022,52.818,1505.471,53.222Zm3.116-8.653a1.211,1.211,0,0,1-1.06-1.268c-.052-1.352,1.5-1.756,2.664-.683C1511.005,43.357,1510.035,44.555,1508.587,44.569Zm1.138-5.086c-2.082-.752-.647-3.957,1.8-3.985,2.263-.028,3.608,1.561,2.78,3.275C1513.668,40.054,1512.052,40.305,1509.725,39.483Zm7.125,3.316c-.776,1.3-3.9,1.352-3.957.07-.039-1.031,2.793-2.062,3.905-1.435C1517.147,41.643,1517.173,42.256,1516.849,42.8Zm21.918,10.785c-1.06,1.77-4.384.78-4.461-1.324-.052-1.491.414-1.923,2.069-1.951C1538.612,50.282,1539.788,51.884,1538.767,53.584Zm2.211-9.782c-1.668,1.268-3.284,1.282-2.534.028.737-1.226-2.819-2.076-3.931-.948-3.026-1.212.4-2.787,3.608-2.341C1541.508,41,1542.775,42.451,1540.978,43.8Zm11.25,9.043c-.944-.1-1.746-.739-1.771-1.449-.065-1.491,3.543-2.2,4.9-.961C1556.521,51.508,1554.491,53.069,1552.228,52.846Zm36.542.92c-1.319.014-2.082-.307-1.836-.78.634-1.226,4-1.449,4.034-.265C1590.994,53.319,1590.088,53.751,1588.769,53.765Zm30.387,4.793c-2.508,1.212-6.31,1.728-6.349.878-.052-1.477,4.59-3.4,6.685-2.773C1621.678,57.319,1621.678,57.346,1619.156,58.559Zm13.6.139c-2.6,1.2-6.31,1.031-6.789-.334-.634-1.742,4.72-3.079,7.008-1.756C1634.764,57.653,1634.751,57.764,1632.759,58.7Zm47.52-.488c-.841.864-1.694.906-3.634-1.031C1678.327,56.315,1681.314,57.165,1680.279,58.21Zm73.407-25.458c-1.694-1.143,2.353-3.915,2.858-3.442C1757.475,30.2,1755.38,32.725,1753.686,32.753Zm26.6,22.406c-.841.529-2.547-.028-1-1.477C1780.957,53.654,1781.461,54.406,1780.285,55.159Zm44.921-.181c-2.418-1.338-.427-2.132,1.035-1.616C1827.455,53.779,1826.718,54.95,1825.205,54.978Zm63.7-12.5c-.815-.752,3.621-1.951,5.819-.32C1893.324,43.217,1889.91,43.4,1888.9,42.479Z" transform="translate(86 0)" fill="#fff"/>
  </g>
</svg>
