<svg xmlns="http://www.w3.org/2000/svg" width="1037.324" height="212.362" viewBox="0 0 1037.324 212.362">
  <defs>
    <style>
      .cls-1 {
        fill: #a80e0e;
      }
    </style>
  </defs>
  <g id="red-brush" transform="translate(0.024)">
    <path id="Path_4326" data-name="Path 4326" class="cls-1" d="M633.44,58.845l.016,1.582a85.379,85.379,0,0,0,17.477,2.125,51.612,51.612,0,0,0,7.78-.575l.064-1.566A39.165,39.165,0,0,0,633.44,58.845Z" transform="translate(378.523 34.323)"/>
    <path id="Path_4327" data-name="Path 4327" class="cls-1" d="M966.433,134.976c-3.5.16-7.061.1-10.528.032-1.486-.032-2.971-.048-4.441-.064h-.016q-27.078-.983-54.157-1.981c-.575-.016-1.182-.048-1.773-.08-3.658-.208-7.429-.415-9.953,1.486-4.249,3.2-7.492,2.348-11.327-.064-1.486-3.035-3.834-2.332-5.927-1.709a10.828,10.828,0,0,1-2.332.527c-2.428-.335-3.051.048-3.291.847a2.155,2.155,0,0,0-.032,1.054c-3.866-2.221-8.243-1.629-12.461-.751-.927-2.2-3.083-2.412-5.192-2.588a17.388,17.388,0,0,1-2.141-.272l-.463-.1c-.224-.048-.447-.1-.671-.16-2.013-.479-4.106-.99-6.2.367v-.016c-1.885.99-3.866.783-5.959.575a16.545,16.545,0,0,0-4.074-.064,14.276,14.276,0,0,1-1.326-.623,5.573,5.573,0,0,0-4.249-.831c-1.182-2.029-3-1.661-4.777-1.278-.431.1-.847.176-1.262.24a11.981,11.981,0,0,1-1.9-.99,6.553,6.553,0,0,0-4.713-1.326l-5.464-.959a2.717,2.717,0,0,0-2.061-1.917l.08-.144-1.2.1h-.032l-.176.016v.016a3.364,3.364,0,0,0-3.035,2.109l-1.454.974a8.428,8.428,0,0,1-3.547-.927c-1.757-.751-3.578-1.5-5.863-.479l-8.052,1.038c-1.39-.272-2.78-.559-4.186-.831-2.077-1.246-4.393-1.15-6.646-1.054a21.782,21.782,0,0,1-3.387-.016l-1.869-.24c-3.85-2.253-8-1.789-12.013-1.342-1.2.128-2.428.272-3.61.335a26.575,26.575,0,0,1-2.748-.24c-2.524-.288-5.128-.591-7.524.943l-2.6-.463a3.825,3.825,0,0,0-2.524-1.15l.192-.895-3.435-.383-.032.8h0l-.032-.8-8.691,1.134c-2.4-.016-4.777-.016-7.173-.016-2.428-.895-4.936-.687-7.349-.5a29.432,29.432,0,0,1-4.281.144h0l-10.16-1.022a2.257,2.257,0,0,0-.975-.527c-.687-.895-1.374-1.773-2.045-2.668l1.006-.959,2.7-1.214c.99-.1,2.045-.128,3.083-.16,4.329-.112,8.786-.24,10-5.432l.1-.415-1.1-2.412-.144-.08c-2.268-1.134-2.7-2.157-2.748-2.668-.112-1.15,1.246-2.844,2.2-4.01a1.1,1.1,0,0,0,.575-.5l6.726-.671,2.828.208h0l8.467.128,1.661.655.128-.08a2.629,2.629,0,0,1,1.2-.367l1.118-.24-.1.815,3.451.32.927-.272,2.061-.623,5.671,1.709,2.94-.431c1.374.224,2.764.447,4.186.671,2.364-.08,4.729-.144,7.093-.208l1.582-.048,3.035.895,2.748.623.064-.016c3.211-.927,6.518-.607,9.713-.3a33.134,33.134,0,0,0,7.652.144q7.98-.168,15.959-.351l8.579.895h0l.144.016c1.582.16,3.147.351,4.729.527a106.419,106.419,0,0,0,12.653.99,43.324,43.324,0,0,0,7.285-.575c.99.112,2,.192,3,.272a34.2,34.2,0,0,1,6.614.959,12.67,12.67,0,0,0,3.435.527,8.026,8.026,0,0,0,6.47-3.275l.224-.272-.032-.447c-.048-.783-.08-1.566-.112-2.364l-.032-.767-.463.032a30.331,30.331,0,0,1-7.6-.831c-3.69-.719-7.492-1.454-11.454-.128-6.2-2.141-12.78-2.013-19.155-1.885-1.182.016-2.348.048-3.531.064h-.192v.016a18.077,18.077,0,0,1-4.138-.256c-2.492-.351-5.08-.7-7.477.863a29.892,29.892,0,0,0-17.924-2.54c-5.16.687-11.167,1.07-16.551-1.406a1.829,1.829,0,0,1-.112-.895c.192-1.15,1.677-2.316,2.6-3.019.783-.24,1.582-.463,2.38-.7,1.118.016,2.284.16,3.419.288a31.106,31.106,0,0,0,3.642.3,8.632,8.632,0,0,0,5.575-1.757l1.566-1.23-.751-.1a32.313,32.313,0,0,1,9.521.224,39.434,39.434,0,0,0,8.611.415,55.627,55.627,0,0,1,12.046.527c4.505.511,9.17,1.054,14.026.4a53.252,53.252,0,0,1,10.336.032c2.428.16,4.952.32,7.349.272h.208l.144-.24a6.26,6.26,0,0,0,.543-1.39c.367-1.166.687-2.157,2.971-1.869,1.31.176,1.47.639,1.47.655a4.448,4.448,0,0,1-.336,1.326l-.367,1.022.559.335a6.9,6.9,0,0,0,2.588.927c8.147-.735,16.407-.208,24.379.288,2.7.176,5.4.335,8.084.463,1.63.08,3.275.192,4.92.3,2.684.192,5.4.383,8.1.383,6.007,0,11.854-.975,16.886-5.08,2.061.16,4.234.288,6.5.288a43.825,43.825,0,0,0,14.026-2.077l-.1-1.582L904.735,81.7c-3.531-.144-7.045-.256-10.576-.367-7.924-.256-16.135-.511-24.171-1.07-3.083-.208-6.23-.335-9.266-.463-8.227-.335-16.742-.687-24.874-2.764-2.508-.048-3.994-.879-4.409-2.492l-.144-.559-.351.08c-.719.176-1.438.351-2.189.511a10.763,10.763,0,0,0-7.125.591c-1.741-2.125-4.761-2.4-6.885-1.933a20.776,20.776,0,0,1-7.972-.24,36.189,36.189,0,0,0-4.6-.543v.767l-.192-.687c-6.326,4.026-10.927,3.77-14.921-.8l-.176-.192-5.432,1.981-.16.112c-.192.208-.383.4-.591.607q-4.146-1.51-8.307-3.019l-.144-.048-1.39.927-8.547-2.061-1.709.975a27.491,27.491,0,0,1-12.333-1.518c-.224-.719-.463-1.422-.687-2.141.112-.08.224-.144.32-.224,1.2-.783,2.444-1.582,2.7-3.227l.144-.943-.575-.048a157.535,157.535,0,0,0-30.561.224l-.176.016-.128.192c-.591.927-1.773.943-2.924.959a11.986,11.986,0,0,0-1.31.064h0l-.16.016h-.08c-.24.032-.5.064-.751.1v-.048l-.751.144-.272.032v.016l-4.026.767-1.15-1.118-3.035-.7-5.895.176a14.884,14.884,0,0,0-6.5.112c-2.748.463-5.352.895-7.86-.543l-.1-.032a55.968,55.968,0,0,1-11.486-3.962c-.879-.383-1.757-.767-2.684-1.15a16.925,16.925,0,0,0-2.987-.32c-2.045-.112-4.154-.208-5.48-1.789l-.144-.176-.176.032a1.927,1.927,0,0,1-1.166-.192c-3.307-.815-7.157-.607-9.154.463-4.888,2.652-7.556.655-10.64-1.661l-.176-.128-7.269-.8q-10.951-.407-21.87-.831l-4.313-.24a7.126,7.126,0,0,1-4.377-.24l-4.2-.176-3.1-.288a28.975,28.975,0,0,1-10.16-.32L585,51.489l-.112.064a6.409,6.409,0,0,1-1.07.5l-.959-.112.032-.112-.767.032-.3-.032-.016.032a79.627,79.627,0,0,1-13.979-1.15c-5.687-.815-11.566-1.645-17.557-.895a22.893,22.893,0,0,1-4.681-.064c-.735-.064-1.47-.128-2.189-.144l-3.674-.144c-8.339-.32-16.95-.655-25.433.144L507.474,48.2l-3.563.415-.1-.128-.8.24.112,1.582.144-.016c-2.4.943-4.537,1.614-7.381-.16-3.722-2.332-8.355-2.253-12.844-2.173-.831.016-1.661.032-2.492.032-3.642-.016-7.093-.032-7.365-3.323l-.048-.479-.559-.32c-.352-.208-.687-.4-1.038-.607l-.128-.08-.128.048a7.018,7.018,0,0,1-4.425.383L461,43.341l-.064.016c-4.952,1.965-9.729.8-14.33-.32-1.582-.383-3.227-.783-4.825-1.038-2.476-.4-4.952-.847-7.429-1.294a148.59,148.59,0,0,0-20.736-2.732h-.1l-3.547-.5c-.032-.16-.064-.32-.08-.479l-.08-.687-.415.048c-2.364.272-4.09-.575-5.911-1.486a17.314,17.314,0,0,0-3.035-1.278l-2.077-.335-3.515.847-.048.591a.793.793,0,0,1-.048.208l-2.492-.463h-.08l-25.9-3.371c-.767-.048-1.55-.1-2.332-.128l-9.569-.3-2.54-.144-3.179-.575-1.23-.208-2.764-.1q-20.033-.527-40.066-.99c-5.863-.144-11.918-.288-15.7-4.617h0c-.224-.3-.447-.623-.671-.927a5.129,5.129,0,0,0-.671-2.6c-.8-1.262-2.269-1.709-4.6-1.39l-6.822-.911-.367,1.789c-.16.8-.335,1.6-.511,2.4-2.908.431-3.019-.607-3.147-1.805a4.892,4.892,0,0,0-.591-2.189l-.319.575-.048-.783a26.032,26.032,0,0,1-7.636-.24,23.546,23.546,0,0,0-8.786-.032l.367-.655-3.706-.815c-1.693,0-3.4.016-5.1.048-4.122.048-8.387.1-12.637-.144-2.253-.128-5.048-.272-6.47-2.093l-.128-.16h-.16c-.08,0-.16.016-.24.016l.288-2.764-.4-.208c-4.841-2.444-10.3-2.716-15.608-2.971-1.725-.08-3.515-.176-5.24-.335a1.014,1.014,0,0,0-.591-.351c-2.716-2.924-6.31-2.748-9.809-2.556a24.756,24.756,0,0,1-4.873-.08c0-.112-.016-.224-.016-.335h-.479l.032-.8-8.834-1.038c-1.9.16-3.786.32-5.671.5l-2.78-.831-1.614.5-5.8-.7L159.9,2.061l-.1.1a3.729,3.729,0,0,1-2.971.527q-.527-.048-1.054-.048V2.62h-2.013l-2.812-.959-.1.783.016-.847c-1.438.064-2.876.112-4.329.16l-1.278-.623-3.035.831c-2.876-.192-5.831-.208-8.675-.208-5.735,0-11.646-.016-17.333-1.582L113.264,0,92.688,2.8v.048L90.723,2.7V2.684h-.144l-.016.032-4.968.719-.144.064a60.893,60.893,0,0,1-8.1,5.032A21.138,21.138,0,0,1,73.9,9.569c-2.636.623-5.336,1.294-6.63,3.882h-.016l-.048.1c-.032.064-.064.112-.1.176l-.639,1.486-2.636.943c-3.563.016-4.617,1.885-5.623,3.722a11.384,11.384,0,0,1-1.022,1.6c-4.936,1.869-6.1,5.623-7.029,9.01l-.048.032-.064.415-.415,1.5.176-.1-.671,3.946a16.379,16.379,0,0,1-2.029,3.547c-1.262,1.837-2.572,3.754-2.652,6.055a6.7,6.7,0,0,0,.863,3.435c1.47,2.668,1.278,5.368-.623,8.707a5.176,5.176,0,0,0-4.058,2.8L33.994,63.6c-1.645-.16-2.716.272-3.355,1.342a4.835,4.835,0,0,0-1.693,4.489c-5.176,2.492-5.032,6.422-4.9,9.9a13.452,13.452,0,0,1-.272,4.218A3.275,3.275,0,0,0,22.188,85.8a3.328,3.328,0,0,0,.208,1.661A6.292,6.292,0,0,0,22.763,92l-.048.224c-.559,2.844-1.134,5.767-.176,8.818l.016.064h0c.639,1.566.367,3.2.064,5.08-.4,2.476-.895,5.512,1.294,8.2-.032.559-.064,1.118-.08,1.693l-1.07,1.805L20.735,119.1a2.739,2.739,0,0,0-2.955,2.013l-.863,1.661c-6.9,4.793-10.1,8.962-10.368,13.515-.24,4.058,1.773,8.259,6.534,13.6.064.543.128,1.1.176,1.645l.08.671a12.537,12.537,0,0,0-1.054,6.31c.032,2.316.064,4.313-1.486,6.214-4.186,1.134-6.47,3.674-7.189,7.972l-.591.8C1.852,173.669.4,174.148.19,176a4.143,4.143,0,0,0-.16,1.965c.256,1.566,1.374,2.588,2.556,3.658.927.847,1.965,1.789,2.093,2.732l.032.192.08.16c.671,1.294,1.358,2.6,2.029,3.9l1.55,3,.08.128a1.141,1.141,0,0,1,.224.463l.112.463.3.016c1.422.1,2.732,1.342,3.515,3.307l.128.3,8.211,1.805a2.943,2.943,0,0,0,2.508,1.214,5.961,5.961,0,0,0,1.342-.176l9.362,1.6,1.629.272c.735.256,1.454.511,2.173.767h.016a4.752,4.752,0,0,0,2.093.511,4.362,4.362,0,0,0,1.55-.288l4.425.575a8.5,8.5,0,0,0,4.633,1.134c.751,0,1.518-.048,2.316-.112a8.7,8.7,0,0,0,3.69.847,8.489,8.489,0,0,0,2.189-.288l.1-.032,12.653,1.038-.064.08,1.022-.016.447.032.032-.048,3.307-.032.032.032h.128l4.074-.048.895-.016h.032c.943.176,1.869.383,2.812.591a31.827,31.827,0,0,0,7.077,1.054,13.442,13.442,0,0,0,4.952-.895h.032l3,.1.032-.016c.543.08,1.086.176,1.629.272a24.322,24.322,0,0,0,3.882.479l10.847.224c13.627.288,27.7.575,41.552.575h.144c7.381,0,14.873-.336,22.11-.671,3.355-.144,6.71-.3,10.08-.415h0l4.138.016.016-.016a34.883,34.883,0,0,1,7.524.08c1.582.128,3.163.272,4.745.272a15.32,15.32,0,0,0,8.02-1.9l2.6.751a3.869,3.869,0,0,0,2.444.927,4,4,0,0,0,2.6-1.07l1.39-.751c2.141.048,4.3,0,6.39-.032a75.529,75.529,0,0,1,11.822.367c.735.1,1.5.256,2.3.431,2.524.543,5.368,1.134,8.052-.144a34.621,34.621,0,0,0,3.866.208,36.582,36.582,0,0,0,6.454-.575h.016l11.47-.863a25.817,25.817,0,0,0,3.323,1.022,13.857,13.857,0,0,1,5.08,2.029l.192-.735h0v.8l5.8.112.144-.256c.687-1.262,2.332-1.518,3.93-1.773l.543-.1c.911.112,1.805.224,2.716.351l2.732,1.1h.08a73.255,73.255,0,0,1,17.445.064l3.035.176h4.6l.112-.527c.032-.128.032-.24.064-.367l2.3.335c1.214.176,2.428.351,3.642.543l.463-.032.016-.176,3.147-.863a5.548,5.548,0,0,0,1.757.288,5.97,5.97,0,0,0,2.876-.767l2.828-.048,2.78.192h0l2.045.144v.016l.927.048h.1l.144.016h0c5.7.288,11.391.559,17.094.847h.048l.032-.016a20.106,20.106,0,0,1,8.563-.128l.064.016,3.355-.8,2.237.272,3.2.463,4.457-.176a6.949,6.949,0,0,1,3.5.224,11.383,11.383,0,0,0,2.524.4,4.154,4.154,0,0,0,2.652-.895l1.342-.336,3,.687c2-.144,3.978-.272,5.975-.415v-.048l5.064.8c-.016.1-.016.192-.032.288l-.128.943.575.032c5.767.351,11.534.687,17.381,1.022a23.278,23.278,0,0,1,7.876-.176c1.358.128,2.748.256,4.138.256a15.68,15.68,0,0,0,4.026-.479l2.764-.08.032.016a44.8,44.8,0,0,0,9.09.943c1.214,0,2.428-.064,3.642-.16v.016l.224-.032a.312.312,0,0,0,.128-.016l.623-.064-.016-.064,2.125-.351h0a22.662,22.662,0,0,0,4.138.383,22.282,22.282,0,0,0,4.809-.527v-.016l5.751-.8A7.809,7.809,0,0,0,481,209.214a6.574,6.574,0,0,0,1.47-.16H486.5l5.815.176.064.639,3-.112,2.876-1.534c.623.272,1.262.559,1.885.831l-.032.112.671.176.319.144.016-.064a28.558,28.558,0,0,0,10.064.7l3.147-.032c1.294.128,2.6.272,3.9.415v.016l1.566.224v.032h.256l.687.1v-.08l16.391.4h0a16.167,16.167,0,0,1,2.221.32,14.67,14.67,0,0,0,2.716.335,3.778,3.778,0,0,0,2.716-.943c3-2.812,6.358-2.2,9.9-1.566.447.08.911.16,1.374.24,1.406.24,2.876.335,4.281.447l1.837.144.112.048a16.184,16.184,0,0,1,1.757.32,11.331,11.331,0,0,0,2.524.367,4.378,4.378,0,0,0,2.828-.975c.479-.064.943-.128,1.422-.208a5.936,5.936,0,0,0,4.265-.479,6.089,6.089,0,0,1,3.259-.623,15.563,15.563,0,0,0,9.921,3.211A28.113,28.113,0,0,0,594,211.2h0a10.918,10.918,0,0,1,2.764.288,14.178,14.178,0,0,0,2.476.3,5.464,5.464,0,0,0,1.981-.351c.815.144,1.646.288,2.476.431l.431.08h.032c4.345-.224,8.675-.431,13.02-.655h.048a7.012,7.012,0,0,0,1.15.112,6.856,6.856,0,0,0,3.083-.751,7.844,7.844,0,0,0,1.038.1,2.51,2.51,0,0,0,2.476-1.406l.16-.064a9.984,9.984,0,0,1,3.227.367,13.024,13.024,0,0,0,2.812.431,4.64,4.64,0,0,0,3.1-1.134.86.86,0,0,0,.751-.3l1.342.16.1-.064c1.406-.847,3.291-.895,5.128-.943,2.716-.08,5.5-.176,7.125-2.732a2.227,2.227,0,0,0,.943-.24l1.917.767-.016.144,2.46.288.016-.048,4.218.16.479-.16c.3-.112.607-.208.863-.3a19.56,19.56,0,0,1,10.32.336l5.671-.128a61.225,61.225,0,0,1,18.979,1.15l.016-.256v.256l7.189.815c.751-.064,1.5-.176,2.237-.288a15.884,15.884,0,0,1,6.262-.048l.08.016.08-.032c2.269-.767,4.074-.975,5.559.5l.1.1,5.879.463.1.016.1-.064c2.636-1.757,5.751-1.981,9.777-.735l.192.064.16-.176a15.853,15.853,0,0,1,1.39-1.31c1.406-1.23,2.62-2.3,2.444-3.818-.128-1.166-.974-2.109-4.553-2.876a1.591,1.591,0,0,1-.048-.751c.24-1.006,1.853-1.709,3.163-2.285,1.47-.639,2.86-1.262,3.515-2.492l7.94-1.5.1-.032c2.013-1.038,4.09-2.125,5.288-3.962l.208-.32-.511-3.8-.208-.176a1.6,1.6,0,0,1-.639-.879,3.188,3.188,0,0,1,.256-1.278c4.441-.4,6.454-1.39,6.965-3.419a5.779,5.779,0,0,0-.831-4.138l-.16-.288-.24.032a8.733,8.733,0,0,1-3.083-.351c-1.869-.431-3.8-.863-5.607.767-2.716-.447-5.032,1.07-6.726,2.221-1.054.7-1.949,1.31-2.428,1.07-2.732-1.438-5.719-1.534-8.627-1.629a19.132,19.132,0,0,1-7.237-1.15c.3-1.1,1.438-2.061,2.556-2.987a9.068,9.068,0,0,0,2.764-3.1l23.58-.767.048.032.128-.032a13.974,13.974,0,0,1,2.4-.335c1.757-.144,3.419-.288,4.233-1.534,1.486-2.269,3.179-2.924,5.512-2.077.99.351,1.342.815,1.454,1.134a3.693,3.693,0,0,1-.048,1.661,7.925,7.925,0,0,0-.144,1.869l.032.527.3.144c.99.463,1.869-.256,2.652-.895,1.118-.911,1.917-1.582,3,.4a7.861,7.861,0,0,0,.671,1.086,3.985,3.985,0,0,0,3.147,1.853c1.47,0,2.923-1.07,3.914-3.131.974-2.045,2.764-2.556,4.841-3.163q.839-.24,1.725-.527c2.94-1.038,5.767-.591,8.5-.16a23.775,23.775,0,0,0,5.751.415l.24-.016.128-.32c.3-.719.607-1.1.943-1.182.415-.08.911.288,1.5,1.1.16.351.319.719.479,1.07l.447,1.006.336-.224c1.661-1.1,2.844-1.374,3.5-.783a3.319,3.319,0,0,1,.767,2.077l.08.607,6.47.128.1-.064c1.278-.863,2.556-1.741,3.834-2.6l.192-.128.08-.3a4.374,4.374,0,0,0,.08-.447,11.6,11.6,0,0,0,4.058-1.262,9.3,9.3,0,0,1,4.857-1.214,10.178,10.178,0,0,0,4.313,1.23,5.7,5.7,0,0,0,3.259-1.054l5.112-.112c1.518.064,3.035.144,4.569.24,2.764.16,5.607.32,8.419.32.863,0,1.709-.016,2.572-.048l.847-.032c3.067-.1,6.853-.224,7.349-4.138l.336-.367.016-.224,2.412-.911.1-.016,5.751-1.1,1.23.447a1.782,1.782,0,0,0,.863.32l.367.128-.064-.144a1.276,1.276,0,0,0,.24-.048c.511.048.959.08,1.342.08,1.422,0,2.189-.351,2.684-1.15a5.814,5.814,0,0,0,.575-3.019c-.064-4.761-3.515-6.726-7.173-8.8-.415-.24-.831-.479-1.262-.719a2.035,2.035,0,0,1,.016-.319,18.46,18.46,0,0,1,12.525.415c3.355,1.23,6.39,2.2,9.7,2.2a17.545,17.545,0,0,0,5.368-.863c.383-.128.8-.256,1.214-.4,2.332-.8,5.224-1.773,8.131-1.166,15.257,3.163,29.73,1.869,43.022-3.866.751-.1,1.5-.224,2.252-.335,3.866-.607,7.508-1.182,11.359.447a4.1,4.1,0,0,0,1.646.335,9.251,9.251,0,0,0,4.3-1.534l1.709-.927-.927-.911A6.9,6.9,0,0,0,966.433,134.976ZM651.86,174.4Zm18.532,4.2ZM455.842,58.262Zm34.747,53.885ZM373.648,89.99Zm-57.783,87.05ZM193.413,197.6ZM69,164.4Zm633.011-37.734ZM537.125,210.428h0v0Z" transform="translate(0)"/>
    <path id="Path_4328" data-name="Path 4328" class="cls-1" d="M546.443,133.077a25.7,25.7,0,0,1-4.505.479l-1.1-.112c-14.682-1.518-29.874-3.083-44.987-3.339a3.5,3.5,0,0,0-.08-1.645c-.591-1.757-2.652-1.661-4.649-1.6-.415.016-.8.032-1.134.032-4.441-.08-8.946.08-13.307.24-1.725.064-3.451.128-5.176.176l-8.563-1.55-.1.064a2.992,2.992,0,0,0-1.661,2.221,5.174,5.174,0,0,0,.943,3.243l.415-.431h0l-.1.783a8.612,8.612,0,0,0,5.048-.208c1.709-.415,3.339-.815,5-.1l.016.032.128.032,1.438.655-.192-.383c1.262.272,2.54.559,3.8.863,4.681,1.1,9.505,2.237,14.586,2.237.655,0,1.31-.016,1.981-.064,2.364.208,4.713.415,7.077.639,9.266.847,18.739,1.725,28.277,1.725,4.074,0,8.148-.16,12.237-.543h.032a31.3,31.3,0,0,1,5.176.335,38.618,38.618,0,0,0,4.537.351,13.432,13.432,0,0,0,5.208-.943l1.246-.511-1.134-.975C553.552,131.895,549.941,132.5,546.443,133.077Z" transform="translate(275.572 75.147)"/>
    <path id="Path_4329" data-name="Path 4329" class="cls-1" d="M612.259,54.749c-1.773-.671-3.451-1.326-5.671-.479a2.027,2.027,0,0,0-1.358,1.853,1.546,1.546,0,0,0,.863,1.486,9.731,9.731,0,0,0,4.393,1.07,10,10,0,0,0,5.1-1.47l-.128-1.534A14.029,14.029,0,0,1,612.259,54.749Z" transform="translate(361.666 32.189)"/>
  </g>
</svg>
