<svg xmlns="http://www.w3.org/2000/svg" width="90.594" height="24" viewBox="0 0 90.594 24">
  <defs>
    <style>
      .cls-1 {
        fill: #fff;
        font-size: 16px;
        font-family: Heebo-Black, Heebo;
        font-weight: 800;
        letter-spacing: 0.072em;
      }

      .cls-2 {
        fill: #ffc200;
      }
    </style>
  </defs>
  <g id="heebo-logo" transform="translate(-30.406 -30)">
    <text id="app-name" class="cls-1" transform="translate(65 47)"><tspan x="0" y="0">HEEBO</tspan></text>
    <g id="heebo-logo-2" data-name="heebo-logo" transform="translate(30.406 30)">
      <path id="Path" class="cls-2" d="M10.411.4A1.355,1.355,0,0,0,8.5.394L4.051,4.844,2.305,3.1A1.351,1.351,0,0,0,.4,5.006l2.7,2.7a1.338,1.338,0,0,0,.954.4,1.357,1.357,0,0,0,.956-.394l5.4-5.4A1.352,1.352,0,0,0,10.411.4Z" transform="translate(0 2.544)"/>
      <path id="Path-2" data-name="Path" class="cls-2" d="M10.411.4A1.355,1.355,0,0,0,8.5.394L4.051,4.844,2.305,3.1A1.351,1.351,0,1,0,.4,5.009l2.7,2.7a1.354,1.354,0,0,0,1.91,0l5.4-5.4A1.352,1.352,0,0,0,10.411.4Z" transform="translate(0 13.351)"/>
      <path id="Path-3" data-name="Path" class="cls-2" d="M6.755,0h-5.4a1.351,1.351,0,0,0,0,2.7h5.4a1.351,1.351,0,1,0,0-2.7Z" transform="translate(13.507 5.245)"/>
      <path id="Path-4" data-name="Path" class="cls-2" d="M6.755,0h-5.4a1.351,1.351,0,0,0,0,2.7h5.4a1.351,1.351,0,1,0,0-2.7Z" transform="translate(13.507 16.053)"/>
    </g>
  </g>
</svg>
