<svg xmlns="http://www.w3.org/2000/svg" width="16" height="16" viewBox="0 0 16 16">
  <defs>
    <style>
      .cls-3 {
        fill: #fff;
        opacity: 0.5;
      }
    </style>
  </defs>
  <path id="search" class="cls-3" d="M14.663,16a1.328,1.328,0,0,1-.945-.392l-3.477-3.477a.294.294,0,0,1-.027-.032c-.007-.009-.014-.018-.021-.026a6.578,6.578,0,1,1,1.88-1.88l.026.021a.306.306,0,0,1,.033.028l3.476,3.476A1.337,1.337,0,0,1,14.663,16ZM6.578,2.281a4.3,4.3,0,1,0,4.3,4.3A4.3,4.3,0,0,0,6.578,2.281Z"/>
</svg>
